# xmcd
#
# Track frame offsets:
#	150
#	37488
#	65078
#	95129
#	132396
#	157383
#	176458
#	200584
#	222652
#	259531
#	273232
#	282853
#	311968
#	326818
#	340819
#
# Disc length: 4723 seconds
#
# Revision: 1
# Processed by: cddbd v1.5.2PL0 Copyright (c) Steve Scherf et al.
# Submitted via: audiograbber 1.83.01
#
DISCID=0312710f
DTITLE=Xqlusiv  - Vol. 20 Give the respect....And take !!!
DYEAR=1900
DGENRE=
TTITLE0=Oemar - Ek baap do beti (oemar)
TTITLE1=Oemar and D. Wack - Munda bhangra
TTITLE2=Oemar - Teri meri
TTITLE3=D-Wack, Randhier, Oemar - Ek baap do beti (dwack randhier oemar)
TTITLE4=Randhier - Do shaadi talwaar
TTITLE5=D-Wack - Kajra lagai ke
TTITLE6=Oemar and Randhier - Madhubala
TTITLE7=Redinio - Hey jij
TTITLE8=Randhier - I love you
TTITLE9=D-Wack - Ar har ke daal
TTITLE10=D-Wack - Kahe chere
TTITLE11=Oemar - Tu akela tha
TTITLE12=Redinio - Mani ven conmigo
TTITLE13=Oemar - Zindagi mein aap
TTITLE14=Oemar - Do kadam
EXTD=
EXTT0=
EXTT1=
EXTT2=
EXTT3=
EXTT4=
EXTT5=
EXTT6=
EXTT7=
EXTT8=
EXTT9=
EXTT10=
EXTT11=
EXTT12=
EXTT13=
EXTT14=
PLAYORDER=
